<?xml version="1.0" encoding="iso-8859-1"?>
<!-- Uploaded to: SVG Repo, www.svgrepo.com, Generator: SVG Repo Mixer Tools -->
<svg height="800px" width="800px" version="1.1" id="Layer_1" xmlns="http://www.w3.org/2000/svg" xmlns:xlink="http://www.w3.org/1999/xlink" 
	 viewBox="0 0 511.998 511.998" xml:space="preserve">
<g>
	<path style="fill:#1E9ED1;" d="M83.457,242.262l183.416,183.421l15.32,15.316L501.32,221.872L302.584,23.135
		c-16.593-16.592-43.742-16.592-60.336,0L23.124,242.262C39.715,225.67,66.865,225.67,83.457,242.262z"/>
	<path style="fill:#00E58B;" d="M266.874,425.683L83.457,242.262c-16.592-16.592-43.742-16.592-60.333,0l-2.227,2.404
		c-14.33,16.714-13.587,42.125,2.225,57.931l30.166,30.172l30.168-30.167l30.167,30.167l30.17,30.167l-30.167,30.168l108.23,108.228
		C221.858,469.768,239.131,440.738,266.874,425.683z"/>
	<polygon style="fill:#F72F48;" points="143.795,362.937 113.625,332.769 83.457,302.602 53.289,332.769 10.677,375.381 
		71.014,375.381 71.014,435.716 113.628,393.106 	"/>
</g>
<g>
	<path style="fill:#000003;" d="M175.674,160.714c2.731,0,5.461-1.042,7.543-3.126l4.525-4.527
		c4.164-4.166,4.163-10.919-0.003-15.084c-4.165-4.164-10.92-4.165-15.084,0.003l-4.525,4.527
		c-4.164,4.166-4.163,10.919,0.003,15.084C170.217,159.673,172.945,160.714,175.674,160.714z"/>
	<path style="fill:#000003;" d="M265.265,439.155l9.385,9.386c2.083,2.082,4.813,3.124,7.543,3.124c1.364,0,2.729-0.26,4.015-0.782
		c1.283-0.521,2.487-1.302,3.527-2.342l219.127-219.126c4.166-4.165,4.166-10.919,0-15.085L310.125,15.593
		c-20.795-20.791-54.627-20.791-75.42,0L15.626,234.678c-0.015,0.015-0.029,0.027-0.044,0.042c-0.029,0.029-0.059,0.059-0.086,0.089
		c-0.31,0.308-0.61,0.618-0.877,0.901c-0.293,0.309-0.58,0.62-0.865,0.933c-0.001,0.001-0.002,0.002-0.003,0.003
		c-0.013,0.014-0.025,0.026-0.036,0.039c-0.303,0.334-0.601,0.674-0.893,1.014c-0.067,0.076-0.121,0.159-0.185,0.237
		c-8.163,9.602-12.623,21.69-12.623,34.5c0.001,14.279,5.53,27.669,15.567,37.704l22.625,22.629L3.134,367.837
		c-3.049,3.051-3.963,7.638-2.312,11.624c1.651,3.985,5.54,6.584,9.855,6.584h49.672v49.669c0,4.315,2.599,8.203,6.584,9.853
		c1.319,0.547,2.705,0.813,4.08,0.813c2.775,0,5.504-1.084,7.544-3.123l35.071-35.071l82.48,82.478h-46.772
		c-5.89,0-10.666,4.775-10.666,10.666c0,5.89,4.776,10.666,10.666,10.666h213.324c5.889,0,10.666-4.776,10.666-10.666
		c0-5.891-4.777-10.666-10.666-10.666H233.284C236.253,469.817,247.823,451.112,265.265,439.155z M249.791,30.678
		c12.476-12.474,32.775-12.474,45.25,0l191.194,191.194L282.194,425.914L98.542,242.262l57.524-57.519
		c4.166-4.165,4.166-10.918,0.001-15.084c-4.165-4.165-10.918-4.165-15.084-0.001l-58.285,58.278
		c-6.575-4.352-14.026-7.164-21.903-8.26L249.791,30.678z M71.014,364.714H36.428l47.03-47.028l45.254,45.251L81.68,409.966V375.38
		C81.68,369.49,76.904,364.714,71.014,364.714z M213.957,478.348l-85.246-85.243l15.083-15.082l25.748,25.75
		c2.083,2.082,4.813,3.124,7.542,3.124s5.459-1.042,7.542-3.124c4.165-4.165,4.165-10.918,0-15.085l-33.281-33.282
		c-0.003-0.004-0.006-0.009-0.01-0.012L91,295.06c-4.165-4.163-10.917-4.164-15.085,0l-22.625,22.625l-22.625-22.631
		c-6.008-6.006-9.317-14.04-9.318-22.62c0-8.582,3.31-16.617,9.319-22.626l0.145-0.146c5.993-5.921,13.968-9.178,22.481-9.178
		c8.579,0,16.614,3.311,22.624,9.32l174.07,174.07C231.946,437.357,219.255,456.652,213.957,478.348z"/>
	<path style="fill:#000003;" d="M208.637,412.696c-4.167-4.165-10.919-4.163-15.085,0.002c-4.164,4.166-4.163,10.919,0.002,15.085
		l4.402,4.401c2.083,2.082,4.813,3.123,7.541,3.123c2.731,0,5.46-1.042,7.543-3.125c4.164-4.165,4.163-10.919-0.002-15.085
		L208.637,412.696z"/>
	<path style="fill:#000003;" d="M344.239,329.282c2.729,0,5.46-1.042,7.543-3.126l4.525-4.527
		c4.164-4.166,4.162-10.919-0.004-15.084c-4.164-4.165-10.92-4.164-15.083,0.003l-4.525,4.527
		c-4.164,4.166-4.164,10.919,0.002,15.084C338.781,328.241,341.51,329.282,344.239,329.282z"/>
	<path style="fill:#000003;" d="M375.917,297.606c2.732,0,5.46-1.042,7.543-3.124l65.064-65.067c4.164-4.165,4.164-10.919,0-15.085
		c-4.166-4.164-10.92-4.164-15.085,0l-65.064,65.067c-4.166,4.165-4.166,10.919,0,15.085
		C370.459,296.564,373.187,297.606,375.917,297.606z"/>
</g>
</svg>